<?xml version="1.0" encoding="utf-8"?>
<!-- Generator: Adobe Illustrator 16.0.0, SVG Export Plug-In . SVG Version: 6.00 Build 0)  -->
<!DOCTYPE svg PUBLIC "-//W3C//DTD SVG 1.1//EN" "http://www.w3.org/Graphics/SVG/1.1/DTD/svg11.dtd">
<svg version="1.1" id="Layer_1" xmlns="http://www.w3.org/2000/svg" xmlns:xlink="http://www.w3.org/1999/xlink" x="0px" y="0px"
	 width="23px" height="23px" viewBox="0 0 23 23" enable-background="new 0 0 23 23" xml:space="preserve">
<g>
	<path fill="#BCBFC0" d="M11.5,1.143C5.701,1.143,1,5.844,1,11.644c0,5.799,4.701,10.499,10.5,10.499S22,17.443,22,11.644
		S17.299,1.143,11.5,1.143z M13.236,15.885c0,1.91-0.779,3.473-1.736,3.473c-0.954,0-1.734-1.562-1.734-3.473v-2.24
		c0-1.91,0.78-3.489,1.734-3.51c0.957-0.021,1.736,1.524,1.736,3.436V15.885z M11.5,7.789c-0.922,0-1.646-0.833-1.646-1.875
		C9.854,4.853,10.578,4,11.5,4c0.925,0,1.648,0.853,1.648,1.913C13.148,6.955,12.425,7.789,11.5,7.789z"/>
</g>
</svg>
